<?xml version="1.0" encoding="UTF-8"?>
<svg width="26px" height="26px" viewBox="0 0 26 26" version="1.1" xmlns="http://www.w3.org/2000/svg" xmlns:xlink="http://www.w3.org/1999/xlink">
    <g id="正式页面" stroke="none" stroke-width="1" fill="none" fill-rule="evenodd">
        <g id="财务驾驶舱-指标预警" transform="translate(-90.000000, -84.000000)" fill="#FFFFFF" fill-rule="nonzero">
            <g id="-mockplus-" transform="translate(90.000000, 84.000000)">
                <g id="Arrow---Left-Circle" transform="translate(2.000000, 2.000000)">
                    <path d="M12,0 L12.3357179,0.00461305197 C18.8046929,0.182595806 24,5.48827119 24,12 C24,18.612 18.624,24 12,24 C5.388,24 0,18.612 0,12 C0,5.376 5.388,0 12,0 Z M14.376,7.2 C14.016,6.84 13.452,6.84 13.104,7.2 L8.916,11.364 C8.748,11.532 8.652,11.76 8.652,12 C8.652,12.24 8.748,12.468 8.916,12.636 L13.104,16.8 C13.272,16.98 13.5,17.064 13.728,17.064 C13.968,17.064 14.196,16.98 14.376,16.8 C14.724,16.44 14.724,15.876 14.364,15.528 L10.824,12 L14.364,8.472 C14.724,8.124 14.724,7.548 14.376,7.2 Z"></path>
                </g>
            </g>
        </g>
    </g>
</svg>