<?xml version="1.0" encoding="UTF-8"?>
<svg width="18px" height="18px" viewBox="0 0 18 18" version="1.1" xmlns="http://www.w3.org/2000/svg" xmlns:xlink="http://www.w3.org/1999/xlink">
    <g id="页面交互" stroke="none" stroke-width="1" fill="none" fill-rule="evenodd">
        <g id="财务驾驶舱-指标预警交互" transform="translate(-1455.000000, -248.000000)">
            <g id="数据录入/DatePicker日期选择框/亮色/选择-月" transform="translate(1431.000000, 227.000000)">
                <g id="通用/Icon图标/Line/doubleleft" transform="translate(24.000000, 21.000000)">
                    <g id="minus-square" fill="#000000" fill-rule="nonzero" opacity="0">
                        <rect id="矩形" x="0" y="0" width="18" height="18"></rect>
                    </g>
                    <g id="doubleleft">
                        <rect id="矩形" fill="#000000" fill-rule="nonzero" opacity="0" x="0" y="0" width="18" height="18"></rect>
                        <path d="M4.79707031,9 L9.46230469,3.03925781 C9.534375,2.94785156 9.46933594,2.8125 9.3515625,2.8125 L7.99277344,2.8125 C7.90664062,2.8125 7.82402344,2.85292969 7.77128906,2.91972656 L3.28359375,8.65371094 C3.12363281,8.85761719 3.12363281,9.14414063 3.28359375,9.34804687 L7.77128906,15.0802734 C7.82402344,15.1488281 7.90664062,15.1875 7.99277344,15.1875 L9.3515625,15.1875 C9.46933594,15.1875 9.534375,15.0521484 9.46230469,14.9607422 L4.79707031,9 Z M10.1408203,9 L14.8060547,3.03925781 C14.878125,2.94785156 14.8130859,2.8125 14.6953125,2.8125 L13.3365234,2.8125 C13.2503906,2.8125 13.1677734,2.85292969 13.1150391,2.91972656 L8.62734375,8.65371094 C8.46738281,8.85761719 8.46738281,9.14414063 8.62734375,9.34804687 L13.1150391,15.0802734 C13.1677734,15.1488281 13.2503906,15.1875 13.3365234,15.1875 L14.6953125,15.1875 C14.8130859,15.1875 14.878125,15.0521484 14.8060547,14.9607422 L10.1408203,9 Z" id="形状" fill-opacity="0.45" fill="#FFFFFF"></path>
                    </g>
                </g>
            </g>
        </g>
    </g>
</svg>