<?xml version="1.0" encoding="UTF-8"?>
<svg width="32px" height="32px" viewBox="0 0 32 32" version="1.1" xmlns="http://www.w3.org/2000/svg" xmlns:xlink="http://www.w3.org/1999/xlink">
    <g id="正式页面" stroke="none" stroke-width="1" fill="none" fill-rule="evenodd">
        <g id="财务驾驶舱-指标预警" transform="translate(-920.000000, -80.000000)">
            <g id="下拉" transform="translate(920.000000, 80.000000)">
                <rect id="矩形" fill-opacity="0" fill="#D8D8D8" x="0" y="0" width="32" height="32"></rect>
                <g id="Iconly/Bold/Arrow---Down-2" transform="translate(8.000000, 9.333333)" fill="#FFFFFF" fill-rule="nonzero">
                    <g id="Arrow---Down-2" transform="translate(0.000000, 0.000000)">
                        <path d="M6.492,12.8410456 C6.41466667,12.7657087 6.084,12.481247 5.812,12.2162689 C4.10133333,10.6627699 1.30133333,6.61016399 0.446666667,4.48904043 C0.309333333,4.16691021 0.0186666667,3.35249229 0,2.91735671 C0,2.50040591 0.096,2.10293879 0.290666667,1.72365644 C0.562666667,1.25085241 0.990666667,0.87157006 1.496,0.663744114 C1.84666667,0.529956162 2.896,0.322130216 2.91466667,0.322130216 C4.06266667,0.11430427 5.928,0 7.98933333,0 C9.95333333,0 11.7426667,0.11430427 12.908,0.284461763 C12.9266667,0.303945446 14.2306667,0.511771391 14.6773333,0.73908102 C15.4933333,1.15603182 16,1.97044975 16,2.84201981 L16,2.91735671 C15.98,3.48498133 15.4733333,4.6786816 15.4546667,4.6786816 C14.5986667,6.68550089 11.936,10.6445852 10.1666667,12.2357526 C10.1666667,12.2357526 9.712,12.6838773 9.428,12.8787141 C9.02,13.1826595 8.51466667,13.3333333 8.00933333,13.3333333 C7.44533333,13.3333333 6.92,13.1631758 6.492,12.8410456"></path>
                    </g>
                </g>
            </g>
        </g>
    </g>
</svg>