<?xml version="1.0" encoding="UTF-8"?>
<svg width="48px" height="200px" viewBox="0 0 48 200" version="1.1" xmlns="http://www.w3.org/2000/svg" xmlns:xlink="http://www.w3.org/1999/xlink">
    <g id="页面交互" stroke="none" stroke-width="1" fill="none" fill-rule="evenodd">
        <g id="财务驾驶舱-指标预警交互" transform="translate(-1862.000000, -440.000000)">
            <g id="右侧按钮" transform="translate(1862.000000, 440.000000)">
                <rect id="矩形备份-8" fill-opacity="0.4" fill="#000000" x="0" y="0" width="48" height="200"></rect>
                <g id="cheveron-left备份" transform="translate(24.000000, 97.000000) scale(-1, -1) translate(-24.000000, -97.000000) translate(16.000000, 89.000000)" fill="#FFFFFF">
                    <rect id="矩形" fill-rule="nonzero" opacity="0" x="0" y="0" width="16" height="16"></rect>
                    <path d="M10,14.0000025 C9.73473945,14.000274 9.4803053,13.8948296 9.293,13.707 L4.293,8.707 C4.10528364,8.51960256 3.99979884,8.2652456 3.99979884,8 C3.99979884,7.7347544 4.10528364,7.48039744 4.293,7.293 L9.293,2.293 C9.54558677,2.04041323 9.91374001,1.94176686 10.25878,2.03422004 C10.6038199,2.12667321 10.8733268,2.39618009 10.96578,2.74122004 C11.0582331,3.08625999 10.9595868,3.45441323 10.707,3.707 L6.414,8 L10.707,12.293 C10.9939377,12.5786371 11.0801007,13.009216 10.9251743,13.3832743 C10.770248,13.7573326 10.4048716,14.0008943 10,14.0000025" id="路径"></path>
                </g>
            </g>
        </g>
    </g>
</svg>